<svg xmlns="http://www.w3.org/2000/svg" viewBox="0 0 128 128" role="img" aria-labelledby="title description">
  <title id="title">Wayfinder compass mascot</title>
  <desc id="description">A friendly cream and gold compass with a rust needle, smiling face, and two small feet.</desc>
  <g stroke="#25231f" stroke-linecap="round" stroke-linejoin="round">
    <path d="M29 102c0 11 7 17 18 17 8 0 13-5 17-13-3-7-9-12-18-12-10 0-17 3-17 8Z" fill="#e8a72f" stroke-width="5"/>
    <path d="M99 102c0 11-7 17-18 17-8 0-13-5-17-13 3-7 9-12 18-12 10 0 17 3 17 8Z" fill="#e8a72f" stroke-width="5"/>
    <circle cx="64" cy="57" r="49" fill="#fffaf0" stroke-width="6"/>
    <circle cx="64" cy="57" r="38" fill="none" stroke="#e8a72f" stroke-width="9"/>
    <path d="M64 17 71 48 64 55 57 48 64 17Z" fill="#a94425" stroke-width="4"/>
    <path d="m57 48 7 7 7-7-7-3-7 3Z" fill="#25231f" stroke-width="3"/>
    <circle cx="50" cy="65" r="4.5" fill="#25231f" stroke="none"/>
    <circle cx="78" cy="65" r="4.5" fill="#25231f" stroke="none"/>
    <path d="M54 78c3 5 7 7 10 7s7-2 10-7" fill="none" stroke-width="4"/>
    <path d="M44 41 38 35M84 41l6-6" fill="none" stroke-width="4"/>
  </g>
</svg>
